<svg width="421" height="48" viewBox="0 0 421 48" fill="none" xmlns="http://www.w3.org/2000/svg">
<g clip-path="url(#clip0_127094_2101)">
<g clip-path="url(#clip1_127094_2101)">
<path fill-rule="evenodd" clip-rule="evenodd" d="M14.1663 8.86947C12.7856 8.86947 11.6663 9.98875 11.6663 11.3695V36.6299C11.6663 38.0106 12.7856 39.1299 14.1663 39.1299H25.833C27.2137 39.1299 28.333 38.0106 28.333 36.6299V11.3695C28.333 9.98875 27.2137 8.86947 25.833 8.86947H25.694L25.2881 9.84355C25.0293 10.4646 24.4225 10.8691 23.7497 10.8691H16.2497C15.5769 10.8691 14.9701 10.4646 14.7113 9.84355L14.3053 8.86947H14.1663ZM8.33301 11.3695C8.33301 8.1478 10.9447 5.53613 14.1663 5.53613H25.833C29.0547 5.53613 31.6663 8.1478 31.6663 11.3695V36.6299C31.6663 39.8515 29.0547 42.4632 25.833 42.4632H14.1663C10.9447 42.4632 8.33301 39.8515 8.33301 36.6299V11.3695Z" fill="#FF5A30"/>
<g clip-path="url(#clip2_127094_2101)">
<path d="M57.544 16.196C55.9667 16.196 54.7627 15.7573 53.932 14.88C53.1107 14.0027 52.7 12.7567 52.7 11.142C52.7 10.3393 52.826 9.62533 53.078 9C53.33 8.36533 53.6753 7.83333 54.114 7.404C54.5527 6.96533 55.0753 6.634 55.682 6.41C56.2887 6.186 56.9467 6.074 57.656 6.074C58.0667 6.074 58.44 6.10667 58.776 6.172C59.112 6.228 59.406 6.298 59.658 6.382C59.91 6.45667 60.12 6.536 60.288 6.62C60.456 6.704 60.5773 6.76933 60.652 6.816L60.022 8.58C59.7233 8.42133 59.3733 8.286 58.972 8.174C58.58 8.062 58.132 8.006 57.628 8.006C57.292 8.006 56.9607 8.062 56.634 8.174C56.3167 8.286 56.032 8.468 55.78 8.72C55.5373 8.96267 55.3413 9.28 55.192 9.672C55.0427 10.064 54.968 10.54 54.968 11.1C54.968 11.548 55.0147 11.968 55.108 12.36C55.2107 12.7427 55.3693 13.074 55.584 13.354C55.808 13.634 56.0973 13.858 56.452 14.026C56.8067 14.1847 57.236 14.264 57.74 14.264C58.0573 14.264 58.342 14.2453 58.594 14.208C58.846 14.1707 59.07 14.1287 59.266 14.082C59.462 14.026 59.6347 13.9653 59.784 13.9C59.9333 13.8347 60.0687 13.774 60.19 13.718L60.792 15.468C60.484 15.6547 60.05 15.8227 59.49 15.972C58.93 16.1213 58.2813 16.196 57.544 16.196ZM65.0088 14.544C65.2142 14.544 65.4102 14.5393 65.5968 14.53C65.7835 14.5207 65.9328 14.5067 66.0448 14.488V12.906C65.9608 12.8873 65.8348 12.8687 65.6668 12.85C65.4988 12.8313 65.3448 12.822 65.2048 12.822C65.0088 12.822 64.8222 12.836 64.6448 12.864C64.4768 12.8827 64.3275 12.9247 64.1968 12.99C64.0662 13.0553 63.9635 13.144 63.8888 13.256C63.8142 13.368 63.7768 13.508 63.7768 13.676C63.7768 14.0027 63.8842 14.2313 64.0988 14.362C64.3228 14.4833 64.6262 14.544 65.0088 14.544ZM64.8408 8.44C65.4568 8.44 65.9702 8.51 66.3808 8.65C66.7915 8.79 67.1182 8.99067 67.3608 9.252C67.6128 9.51333 67.7902 9.83067 67.8928 10.204C67.9955 10.5773 68.0468 10.9927 68.0468 11.45V15.79C67.7482 15.8553 67.3328 15.93 66.8008 16.014C66.2688 16.1073 65.6248 16.154 64.8688 16.154C64.3928 16.154 63.9588 16.112 63.5668 16.028C63.1842 15.944 62.8528 15.8087 62.5728 15.622C62.2928 15.426 62.0782 15.174 61.9288 14.866C61.7795 14.558 61.7048 14.18 61.7048 13.732C61.7048 13.3027 61.7888 12.9387 61.9568 12.64C62.1342 12.3413 62.3675 12.1033 62.6568 11.926C62.9462 11.7487 63.2775 11.6227 63.6508 11.548C64.0242 11.464 64.4115 11.422 64.8128 11.422C65.0835 11.422 65.3215 11.436 65.5268 11.464C65.7415 11.4827 65.9142 11.5107 66.0448 11.548V11.352C66.0448 10.9973 65.9375 10.7127 65.7228 10.498C65.5082 10.2833 65.1348 10.176 64.6028 10.176C64.2482 10.176 63.8982 10.204 63.5528 10.26C63.2075 10.3067 62.9088 10.3767 62.6568 10.47L62.3908 8.79C62.5122 8.75267 62.6615 8.71533 62.8388 8.678C63.0255 8.63133 63.2262 8.594 63.4408 8.566C63.6555 8.52867 63.8795 8.50067 64.1128 8.482C64.3555 8.454 64.5982 8.44 64.8408 8.44ZM72.8731 16.14C72.2665 16.1307 71.7718 16.0653 71.3891 15.944C71.0158 15.8227 70.7171 15.6547 70.4931 15.44C70.2785 15.216 70.1291 14.95 70.0451 14.642C69.9705 14.3247 69.9331 13.97 69.9331 13.578V5.472L72.0191 5.136V13.158C72.0191 13.3447 72.0331 13.5127 72.0611 13.662C72.0891 13.8113 72.1405 13.9373 72.2151 14.04C72.2991 14.1427 72.4158 14.2267 72.5651 14.292C72.7145 14.3573 72.9151 14.3993 73.1671 14.418L72.8731 16.14ZM77.3028 16.14C76.6961 16.1307 76.2015 16.0653 75.8188 15.944C75.4455 15.8227 75.1468 15.6547 74.9228 15.44C74.7081 15.216 74.5588 14.95 74.4748 14.642C74.4001 14.3247 74.3628 13.97 74.3628 13.578V5.472L76.4488 5.136V13.158C76.4488 13.3447 76.4628 13.5127 76.4908 13.662C76.5188 13.8113 76.5701 13.9373 76.6448 14.04C76.7288 14.1427 76.8455 14.2267 76.9948 14.292C77.1441 14.3573 77.3448 14.3993 77.5968 14.418L77.3028 16.14ZM88.4418 15.748C88.0871 15.8507 87.6298 15.944 87.0698 16.028C86.5098 16.1213 85.9218 16.168 85.3058 16.168C84.6804 16.168 84.1578 16.084 83.7378 15.916C83.3271 15.748 83.0004 15.5147 82.7578 15.216C82.5151 14.908 82.3424 14.544 82.2398 14.124C82.1371 13.704 82.0858 13.242 82.0858 12.738V8.636H84.1718V12.486C84.1718 13.158 84.2604 13.6433 84.4378 13.942C84.6151 14.2407 84.9464 14.39 85.4318 14.39C85.5811 14.39 85.7398 14.3853 85.9078 14.376C86.0758 14.3573 86.2251 14.3387 86.3558 14.32V8.636H88.4418V15.748ZM92.5139 14.502C92.8966 14.502 93.1673 14.4647 93.3259 14.39C93.4846 14.3153 93.5639 14.1707 93.5639 13.956C93.5639 13.788 93.4613 13.6433 93.2559 13.522C93.0506 13.3913 92.7379 13.2467 92.3179 13.088C91.9913 12.9667 91.6926 12.8407 91.4219 12.71C91.1606 12.5793 90.9366 12.4253 90.7499 12.248C90.5633 12.0613 90.4186 11.842 90.3159 11.59C90.2133 11.338 90.1619 11.0347 90.1619 10.68C90.1619 9.98933 90.4186 9.44333 90.9319 9.042C91.4453 8.64067 92.1499 8.44 93.0459 8.44C93.4939 8.44 93.9233 8.482 94.3339 8.566C94.7446 8.64067 95.0713 8.72467 95.3139 8.818L94.9499 10.442C94.7073 10.358 94.4413 10.2833 94.1519 10.218C93.8719 10.1527 93.5546 10.12 93.1999 10.12C92.5466 10.12 92.2199 10.302 92.2199 10.666C92.2199 10.75 92.2339 10.8247 92.2619 10.89C92.2899 10.9553 92.3459 11.0207 92.4299 11.086C92.5139 11.142 92.6259 11.2073 92.7659 11.282C92.9153 11.3473 93.1019 11.422 93.3259 11.506C93.7833 11.674 94.1613 11.842 94.4599 12.01C94.7586 12.1687 94.9919 12.346 95.1599 12.542C95.3373 12.7287 95.4586 12.9387 95.5239 13.172C95.5986 13.4053 95.6359 13.676 95.6359 13.984C95.6359 14.712 95.3606 15.2627 94.8099 15.636C94.2686 16.0093 93.4986 16.196 92.4999 16.196C91.8466 16.196 91.3006 16.14 90.8619 16.028C90.4326 15.916 90.1339 15.8227 89.9659 15.748L90.3159 14.054C90.6706 14.194 91.0346 14.306 91.4079 14.39C91.7813 14.4647 92.1499 14.502 92.5139 14.502Z" fill="#424551"/>
<path d="M55.078 35.618C55.078 37.154 55.3 38.576 55.744 39.884C56.188 41.192 56.842 42.404 57.706 43.52L56.518 44.33C55.582 43.19 54.826 41.882 54.25 40.406C53.686 38.918 53.404 37.322 53.404 35.618C53.404 33.914 53.686 32.324 54.25 30.848C54.826 29.36 55.582 28.046 56.518 26.906L57.706 27.716C56.842 28.832 56.188 30.044 55.744 31.352C55.3 32.66 55.078 34.082 55.078 35.618ZM58.5559 36.68C58.7839 36.152 59.0959 35.54 59.4919 34.844C59.8879 34.136 60.3319 33.41 60.8239 32.666C61.3279 31.922 61.8619 31.19 62.4259 30.47C63.0019 29.75 63.5779 29.102 64.1539 28.526H65.7559V36.446H67.2319V37.814H65.7559V41H64.1359V37.814H58.5559V36.68ZM64.1359 30.506C63.7759 30.89 63.4099 31.322 63.0379 31.802C62.6779 32.27 62.3239 32.762 61.9759 33.278C61.6279 33.794 61.2979 34.322 60.9859 34.862C60.6859 35.402 60.4159 35.93 60.1759 36.446H64.1359V30.506ZM68.8961 34.754C68.8961 32.666 69.2621 31.058 69.9941 29.93C70.7381 28.802 71.7641 28.238 73.0721 28.238C74.3801 28.238 75.4001 28.802 76.1321 29.93C76.8761 31.058 77.2481 32.666 77.2481 34.754C77.2481 36.842 76.8761 38.45 76.1321 39.578C75.4001 40.706 74.3801 41.27 73.0721 41.27C71.7641 41.27 70.7381 40.706 69.9941 39.578C69.2621 38.45 68.8961 36.842 68.8961 34.754ZM75.4841 34.754C75.4841 34.07 75.4421 33.422 75.3581 32.81C75.2861 32.198 75.1541 31.664 74.9621 31.208C74.7821 30.752 74.5361 30.392 74.2241 30.128C73.9121 29.852 73.5281 29.714 73.0721 29.714C72.6161 29.714 72.2321 29.852 71.9201 30.128C71.6081 30.392 71.3561 30.752 71.1641 31.208C70.9841 31.664 70.8521 32.198 70.7681 32.81C70.6961 33.422 70.6601 34.07 70.6601 34.754C70.6601 35.438 70.6961 36.086 70.7681 36.698C70.8521 37.31 70.9841 37.844 71.1641 38.3C71.3561 38.756 71.6081 39.122 71.9201 39.398C72.2321 39.662 72.6161 39.794 73.0721 39.794C73.5281 39.794 73.9121 39.662 74.2241 39.398C74.5361 39.122 74.7821 38.756 74.9621 38.3C75.1541 37.844 75.2861 37.31 75.3581 36.698C75.4421 36.086 75.4841 35.438 75.4841 34.754ZM81.7383 33.332C83.5503 33.404 84.8763 33.8 85.7163 34.52C86.5683 35.24 86.9943 36.218 86.9943 37.454C86.9943 38.006 86.8983 38.516 86.7063 38.984C86.5263 39.452 86.2443 39.854 85.8603 40.19C85.4883 40.526 85.0143 40.79 84.4383 40.982C83.8623 41.174 83.1783 41.27 82.3863 41.27C82.0743 41.27 81.7563 41.246 81.4323 41.198C81.1083 41.15 80.8083 41.09 80.5322 41.018C80.2563 40.946 80.0103 40.874 79.7943 40.802C79.5783 40.73 79.4223 40.67 79.3263 40.622L79.6503 39.164C79.8543 39.26 80.1843 39.386 80.6403 39.542C81.1083 39.698 81.6783 39.776 82.3503 39.776C82.8903 39.776 83.3403 39.716 83.7003 39.596C84.0723 39.476 84.3723 39.314 84.6003 39.11C84.8283 38.906 84.9903 38.672 85.0863 38.408C85.1943 38.132 85.2483 37.844 85.2483 37.544C85.2483 37.088 85.1703 36.686 85.0143 36.338C84.8583 35.978 84.5823 35.678 84.1863 35.438C83.7903 35.198 83.2623 35.018 82.6023 34.898C81.9423 34.766 81.1083 34.7 80.1003 34.7C80.1723 34.112 80.2263 33.56 80.2623 33.044C80.3103 32.528 80.3523 32.024 80.3883 31.532C80.4243 31.04 80.4543 30.554 80.4783 30.074C80.5023 29.582 80.5263 29.066 80.5503 28.526H86.5623V29.948H82.0083C81.9963 30.128 81.9783 30.374 81.9543 30.686C81.9303 30.986 81.9063 31.304 81.8823 31.64C81.8583 31.964 81.8343 32.282 81.8103 32.594C81.7863 32.906 81.7623 33.152 81.7383 33.332ZM91.0704 35.618C91.0704 34.082 90.8484 32.66 90.4044 31.352C89.9604 30.044 89.3064 28.832 88.4424 27.716L89.6304 26.906C90.5664 28.046 91.3164 29.36 91.8804 30.848C92.4564 32.324 92.7444 33.914 92.7444 35.618C92.7444 37.322 92.4564 38.918 91.8804 40.406C91.3164 41.882 90.5664 43.19 89.6304 44.33L88.4424 43.52C89.3064 42.404 89.9604 41.192 90.4044 39.884C90.8484 38.576 91.0704 37.154 91.0704 35.618ZM101.9 33.332C103.712 33.404 105.038 33.8 105.878 34.52C106.73 35.24 107.156 36.218 107.156 37.454C107.156 38.006 107.06 38.516 106.868 38.984C106.688 39.452 106.406 39.854 106.022 40.19C105.65 40.526 105.176 40.79 104.6 40.982C104.024 41.174 103.34 41.27 102.548 41.27C102.236 41.27 101.918 41.246 101.594 41.198C101.27 41.15 100.97 41.09 100.694 41.018C100.418 40.946 100.172 40.874 99.9564 40.802C99.7404 40.73 99.5844 40.67 99.4884 40.622L99.8124 39.164C100.016 39.26 100.346 39.386 100.802 39.542C101.27 39.698 101.84 39.776 102.512 39.776C103.052 39.776 103.502 39.716 103.862 39.596C104.234 39.476 104.534 39.314 104.762 39.11C104.99 38.906 105.152 38.672 105.248 38.408C105.356 38.132 105.41 37.844 105.41 37.544C105.41 37.088 105.332 36.686 105.176 36.338C105.02 35.978 104.744 35.678 104.348 35.438C103.952 35.198 103.424 35.018 102.764 34.898C102.104 34.766 101.27 34.7 100.262 34.7C100.334 34.112 100.388 33.56 100.424 33.044C100.472 32.528 100.514 32.024 100.55 31.532C100.586 31.04 100.616 30.554 100.64 30.074C100.664 29.582 100.688 29.066 100.712 28.526H106.724V29.948H102.17C102.158 30.128 102.14 30.374 102.116 30.686C102.092 30.986 102.068 31.304 102.044 31.64C102.02 31.964 101.996 32.282 101.972 32.594C101.948 32.906 101.924 33.152 101.9 33.332ZM112.061 33.332C113.873 33.404 115.199 33.8 116.039 34.52C116.891 35.24 117.317 36.218 117.317 37.454C117.317 38.006 117.221 38.516 117.029 38.984C116.849 39.452 116.567 39.854 116.183 40.19C115.811 40.526 115.337 40.79 114.761 40.982C114.185 41.174 113.501 41.27 112.709 41.27C112.397 41.27 112.079 41.246 111.755 41.198C111.431 41.15 111.131 41.09 110.855 41.018C110.579 40.946 110.333 40.874 110.117 40.802C109.901 40.73 109.745 40.67 109.649 40.622L109.973 39.164C110.177 39.26 110.507 39.386 110.963 39.542C111.431 39.698 112.001 39.776 112.673 39.776C113.213 39.776 113.663 39.716 114.023 39.596C114.395 39.476 114.695 39.314 114.923 39.11C115.151 38.906 115.313 38.672 115.409 38.408C115.517 38.132 115.571 37.844 115.571 37.544C115.571 37.088 115.493 36.686 115.337 36.338C115.181 35.978 114.905 35.678 114.509 35.438C114.113 35.198 113.585 35.018 112.925 34.898C112.265 34.766 111.431 34.7 110.423 34.7C110.495 34.112 110.549 33.56 110.585 33.044C110.633 32.528 110.675 32.024 110.711 31.532C110.747 31.04 110.777 30.554 110.801 30.074C110.825 29.582 110.849 29.066 110.873 28.526H116.885V29.948H112.331C112.319 30.128 112.301 30.374 112.277 30.686C112.253 30.986 112.229 31.304 112.205 31.64C112.181 31.964 112.157 32.282 112.133 32.594C112.109 32.906 112.085 33.152 112.061 33.332ZM122.221 33.332C124.033 33.404 125.359 33.8 126.199 34.52C127.051 35.24 127.477 36.218 127.477 37.454C127.477 38.006 127.381 38.516 127.189 38.984C127.009 39.452 126.727 39.854 126.343 40.19C125.971 40.526 125.497 40.79 124.921 40.982C124.345 41.174 123.661 41.27 122.869 41.27C122.557 41.27 122.239 41.246 121.915 41.198C121.591 41.15 121.291 41.09 121.015 41.018C120.739 40.946 120.493 40.874 120.277 40.802C120.061 40.73 119.905 40.67 119.809 40.622L120.133 39.164C120.337 39.26 120.667 39.386 121.123 39.542C121.591 39.698 122.161 39.776 122.833 39.776C123.373 39.776 123.823 39.716 124.183 39.596C124.555 39.476 124.855 39.314 125.083 39.11C125.311 38.906 125.473 38.672 125.569 38.408C125.677 38.132 125.731 37.844 125.731 37.544C125.731 37.088 125.653 36.686 125.497 36.338C125.341 35.978 125.065 35.678 124.669 35.438C124.273 35.198 123.745 35.018 123.085 34.898C122.425 34.766 121.591 34.7 120.583 34.7C120.655 34.112 120.709 33.56 120.745 33.044C120.793 32.528 120.835 32.024 120.871 31.532C120.907 31.04 120.937 30.554 120.961 30.074C120.985 29.582 121.009 29.066 121.033 28.526H127.045V29.948H122.491C122.479 30.128 122.461 30.374 122.437 30.686C122.413 30.986 122.389 31.304 122.365 31.64C122.341 31.964 122.317 32.282 122.293 32.594C122.269 32.906 122.245 33.152 122.221 33.332ZM129.267 34.826H133.713V36.392H129.267V34.826ZM135.078 34.754C135.078 32.666 135.444 31.058 136.176 29.93C136.92 28.802 137.946 28.238 139.254 28.238C140.562 28.238 141.582 28.802 142.314 29.93C143.058 31.058 143.43 32.666 143.43 34.754C143.43 36.842 143.058 38.45 142.314 39.578C141.582 40.706 140.562 41.27 139.254 41.27C137.946 41.27 136.92 40.706 136.176 39.578C135.444 38.45 135.078 36.842 135.078 34.754ZM141.666 34.754C141.666 34.07 141.624 33.422 141.54 32.81C141.468 32.198 141.336 31.664 141.144 31.208C140.964 30.752 140.718 30.392 140.406 30.128C140.094 29.852 139.71 29.714 139.254 29.714C138.798 29.714 138.414 29.852 138.102 30.128C137.79 30.392 137.538 30.752 137.346 31.208C137.166 31.664 137.034 32.198 136.95 32.81C136.878 33.422 136.842 34.07 136.842 34.754C136.842 35.438 136.878 36.086 136.95 36.698C137.034 37.31 137.166 37.844 137.346 38.3C137.538 38.756 137.79 39.122 138.102 39.398C138.414 39.662 138.798 39.794 139.254 39.794C139.71 39.794 140.094 39.662 140.406 39.398C140.718 39.122 140.964 38.756 141.144 38.3C141.336 37.844 141.468 37.31 141.54 36.698C141.624 36.086 141.666 35.438 141.666 34.754ZM146.012 31.1C146.696 30.836 147.362 30.5 148.01 30.092C148.658 29.672 149.252 29.15 149.792 28.526H150.98V41H149.306V30.848C149.162 30.98 148.982 31.118 148.766 31.262C148.562 31.406 148.334 31.544 148.082 31.676C147.842 31.808 147.584 31.934 147.308 32.054C147.044 32.174 146.786 32.276 146.534 32.36L146.012 31.1ZM162.904 31.712C162.904 32.144 162.814 32.564 162.634 32.972C162.466 33.368 162.238 33.764 161.95 34.16C161.662 34.544 161.338 34.928 160.978 35.312C160.618 35.684 160.258 36.05 159.898 36.41C159.694 36.614 159.454 36.854 159.178 37.13C158.914 37.406 158.662 37.694 158.422 37.994C158.182 38.294 157.978 38.582 157.81 38.858C157.654 39.134 157.576 39.374 157.576 39.578H163.318V41H155.758C155.746 40.928 155.74 40.856 155.74 40.784C155.74 40.712 155.74 40.646 155.74 40.586C155.74 40.022 155.83 39.5 156.01 39.02C156.202 38.528 156.448 38.066 156.748 37.634C157.048 37.202 157.384 36.794 157.756 36.41C158.128 36.026 158.494 35.654 158.854 35.294C159.154 35.006 159.436 34.724 159.7 34.448C159.976 34.16 160.216 33.878 160.42 33.602C160.636 33.314 160.804 33.02 160.924 32.72C161.056 32.42 161.122 32.102 161.122 31.766C161.122 31.406 161.062 31.1 160.942 30.848C160.834 30.596 160.684 30.386 160.492 30.218C160.3 30.05 160.072 29.93 159.808 29.858C159.556 29.774 159.286 29.732 158.998 29.732C158.65 29.732 158.332 29.78 158.044 29.876C157.756 29.972 157.498 30.086 157.27 30.218C157.042 30.338 156.85 30.47 156.694 30.614C156.538 30.746 156.418 30.848 156.334 30.92L155.506 29.732C155.614 29.612 155.776 29.468 155.992 29.3C156.208 29.12 156.466 28.952 156.766 28.796C157.066 28.64 157.402 28.508 157.774 28.4C158.146 28.292 158.548 28.238 158.98 28.238C160.288 28.238 161.266 28.544 161.914 29.156C162.574 29.756 162.904 30.608 162.904 31.712ZM173.82 37.76C173.82 38.264 173.73 38.732 173.55 39.164C173.382 39.584 173.124 39.956 172.776 40.28C172.44 40.592 172.014 40.832 171.498 41C170.982 41.18 170.388 41.27 169.716 41.27C168.936 41.27 168.282 41.162 167.754 40.946C167.238 40.718 166.824 40.436 166.512 40.1C166.2 39.764 165.978 39.398 165.846 39.002C165.714 38.594 165.648 38.21 165.648 37.85C165.648 37.502 165.702 37.172 165.81 36.86C165.93 36.536 166.08 36.236 166.26 35.96C166.452 35.684 166.668 35.438 166.908 35.222C167.16 34.994 167.424 34.796 167.7 34.628C166.524 33.956 165.936 32.966 165.936 31.658C165.936 31.202 166.026 30.77 166.206 30.362C166.386 29.942 166.638 29.576 166.962 29.264C167.298 28.952 167.7 28.706 168.168 28.526C168.636 28.334 169.158 28.238 169.734 28.238C170.406 28.238 170.982 28.34 171.462 28.544C171.942 28.748 172.332 29.012 172.632 29.336C172.944 29.648 173.166 29.996 173.298 30.38C173.442 30.764 173.514 31.136 173.514 31.496C173.514 31.844 173.46 32.174 173.352 32.486C173.256 32.786 173.118 33.068 172.938 33.332C172.77 33.596 172.572 33.83 172.344 34.034C172.128 34.238 171.9 34.418 171.66 34.574C173.076 35.246 173.796 36.308 173.82 37.76ZM167.34 37.868C167.34 38.084 167.376 38.312 167.448 38.552C167.532 38.78 167.67 38.996 167.862 39.2C168.054 39.392 168.3 39.554 168.6 39.686C168.9 39.818 169.278 39.884 169.734 39.884C170.142 39.884 170.496 39.824 170.796 39.704C171.108 39.584 171.36 39.434 171.552 39.254C171.744 39.062 171.888 38.846 171.984 38.606C172.08 38.366 172.128 38.12 172.128 37.868C172.128 37.484 172.056 37.148 171.912 36.86C171.768 36.572 171.558 36.32 171.282 36.104C171.018 35.888 170.694 35.708 170.31 35.564C169.938 35.408 169.512 35.276 169.032 35.168C168.492 35.468 168.072 35.84 167.772 36.284C167.484 36.728 167.34 37.256 167.34 37.868ZM171.84 31.478C171.84 31.298 171.798 31.1 171.714 30.884C171.642 30.668 171.522 30.47 171.354 30.29C171.186 30.098 170.97 29.942 170.706 29.822C170.442 29.69 170.118 29.624 169.734 29.624C169.35 29.624 169.02 29.684 168.744 29.804C168.48 29.924 168.264 30.08 168.096 30.272C167.928 30.452 167.802 30.656 167.718 30.884C167.646 31.1 167.61 31.316 167.61 31.532C167.61 31.796 167.658 32.06 167.754 32.324C167.85 32.588 168 32.834 168.204 33.062C168.408 33.29 168.672 33.494 168.996 33.674C169.332 33.854 169.728 33.998 170.184 34.106C170.688 33.806 171.09 33.458 171.39 33.062C171.69 32.654 171.84 32.126 171.84 31.478Z" fill="#1E212C"/>
</g>
</g>
<g clip-path="url(#clip3_127094_2101)">
<path fill-rule="evenodd" clip-rule="evenodd" d="M247.539 21.6113C247.301 23.2559 246.739 24.8189 245.905 26.2563C245.968 26.6121 246 26.9719 246 27.3331C246 28.5878 245.636 29.7886 244.963 30.8796C244.626 31.4242 244.54 32.0623 244.507 32.4839C244.469 32.9671 244.481 33.4958 244.516 34.0037C244.555 34.5735 244.625 35.1717 244.705 35.736C244.054 35.5463 243.349 35.3558 242.676 35.204C242.117 35.0777 241.544 34.9701 241.025 34.9165C240.573 34.8698 239.919 34.8336 239.334 35.0226C238.056 35.4359 236.649 35.6665 235.166 35.6665C233.403 35.6665 231.784 35.3535 230.364 34.8098C230.023 34.8253 229.679 34.8331 229.333 34.8331C227.325 34.8331 225.393 34.5691 223.585 34.0811C226.213 37.1209 230.546 38.9998 235.166 38.9998C236.971 38.9998 238.703 38.7227 240.3 38.2135C240.303 38.2136 240.308 38.2135 240.315 38.2133C240.356 38.2125 240.47 38.2103 240.683 38.2322C241.017 38.2667 241.447 38.3438 241.943 38.4556C242.93 38.6783 244.039 39.007 244.904 39.2814C246.738 39.8635 248.514 38.2634 248.187 36.4027C248.046 35.6019 247.899 34.6245 247.842 33.7778C247.813 33.3521 247.809 33.0026 247.83 32.7462C247.838 32.6399 247.849 32.5733 247.856 32.5379C248.793 30.9846 249.333 29.216 249.333 27.3331C249.333 25.2105 248.674 23.2723 247.539 21.6113Z" fill="#FF5A30"/>
<path fill-rule="evenodd" clip-rule="evenodd" d="M220.328 13.4966C218.081 15.2146 216.833 17.4698 216.833 19.833C216.833 21.0114 217.139 22.1463 217.715 23.2017C217.934 23.6037 217.996 24.0183 218.019 24.299C218.043 24.6051 218.031 24.9197 218.004 25.2139C217.951 25.8028 217.824 26.4701 217.671 27.1274C217.493 27.8962 217.264 28.7162 217.032 29.486C217.913 29.166 218.875 28.8381 219.787 28.5719C220.525 28.3568 221.269 28.1702 221.932 28.0654C222.503 27.9751 223.331 27.8864 224.044 28.1332C225.645 28.6869 227.435 28.9997 229.333 28.9997C232.911 28.9997 236.089 27.8886 238.338 26.1694C240.584 24.4514 241.833 22.1962 241.833 19.833C241.833 17.4698 240.584 15.2146 238.338 13.4966C236.089 11.7775 232.911 10.6663 229.333 10.6663C225.754 10.6663 222.576 11.7775 220.328 13.4966ZM218.303 10.8488C221.182 8.64702 225.087 7.33301 229.333 7.33301C233.578 7.33301 237.483 8.64702 240.362 10.8488C243.243 13.0517 245.166 16.2131 245.166 19.833C245.166 23.4529 243.243 26.6143 240.362 28.8173C237.483 31.019 233.578 32.333 229.333 32.333C227.094 32.333 224.956 31.9681 223.015 31.3041C223.013 31.3095 222.855 31.2941 222.452 31.3578C221.988 31.4313 221.395 31.5751 220.721 31.7719C219.378 32.1635 217.871 32.7176 216.723 33.1645C214.733 33.9387 212.707 32.0281 213.377 29.9929C213.732 28.9142 214.151 27.5511 214.424 26.3741C214.562 25.7812 214.651 25.2827 214.684 24.9135C214.696 24.7853 214.699 24.6919 214.698 24.6288C213.931 23.1629 213.499 21.5417 213.499 19.833C213.499 16.2131 215.422 13.0517 218.303 10.8488ZM214.693 24.5379C214.693 24.5377 214.694 24.5422 214.695 24.5518C214.693 24.5429 214.693 24.5381 214.693 24.5379Z" fill="#FF5A30"/>
<g clip-path="url(#clip4_127094_2101)">
<path d="M271.316 6.298V8.16H268.39V16H266.206V8.16H263.28V6.298H271.316ZM274.341 14.544C274.546 14.544 274.742 14.5393 274.929 14.53C275.116 14.5207 275.265 14.5067 275.377 14.488V12.906C275.293 12.8873 275.167 12.8687 274.999 12.85C274.831 12.8313 274.677 12.822 274.537 12.822C274.341 12.822 274.154 12.836 273.977 12.864C273.809 12.8827 273.66 12.9247 273.529 12.99C273.398 13.0553 273.296 13.144 273.221 13.256C273.146 13.368 273.109 13.508 273.109 13.676C273.109 14.0027 273.216 14.2313 273.431 14.362C273.655 14.4833 273.958 14.544 274.341 14.544ZM274.173 8.44C274.789 8.44 275.302 8.51 275.713 8.65C276.124 8.79 276.45 8.99067 276.693 9.252C276.945 9.51333 277.122 9.83067 277.225 10.204C277.328 10.5773 277.379 10.9927 277.379 11.45V15.79C277.08 15.8553 276.665 15.93 276.133 16.014C275.601 16.1073 274.957 16.154 274.201 16.154C273.725 16.154 273.291 16.112 272.899 16.028C272.516 15.944 272.185 15.8087 271.905 15.622C271.625 15.426 271.41 15.174 271.261 14.866C271.112 14.558 271.037 14.18 271.037 13.732C271.037 13.3027 271.121 12.9387 271.289 12.64C271.466 12.3413 271.7 12.1033 271.989 11.926C272.278 11.7487 272.61 11.6227 272.983 11.548C273.356 11.464 273.744 11.422 274.145 11.422C274.416 11.422 274.654 11.436 274.859 11.464C275.074 11.4827 275.246 11.5107 275.377 11.548V11.352C275.377 10.9973 275.27 10.7127 275.055 10.498C274.84 10.2833 274.467 10.176 273.935 10.176C273.58 10.176 273.23 10.204 272.885 10.26C272.54 10.3067 272.241 10.3767 271.989 10.47L271.723 8.79C271.844 8.75267 271.994 8.71533 272.171 8.678C272.358 8.63133 272.558 8.594 272.773 8.566C272.988 8.52867 273.212 8.50067 273.445 8.482C273.688 8.454 273.93 8.44 274.173 8.44ZM282.205 16.14C281.598 16.1307 281.104 16.0653 280.721 15.944C280.348 15.8227 280.049 15.6547 279.825 15.44C279.61 15.216 279.461 14.95 279.377 14.642C279.302 14.3247 279.265 13.97 279.265 13.578V5.472L281.351 5.136V13.158C281.351 13.3447 281.365 13.5127 281.393 13.662C281.421 13.8113 281.472 13.9373 281.547 14.04C281.631 14.1427 281.748 14.2267 281.897 14.292C282.046 14.3573 282.247 14.3993 282.499 14.418L282.205 16.14ZM285.781 11.296C285.986 11.072 286.196 10.8387 286.411 10.596C286.635 10.3533 286.85 10.1153 287.055 9.882C287.26 9.63933 287.452 9.41067 287.629 9.196C287.816 8.98133 287.974 8.79467 288.105 8.636H290.583C290.088 9.20533 289.603 9.75133 289.127 10.274C288.66 10.7873 288.147 11.3193 287.587 11.87C287.867 12.122 288.156 12.4253 288.455 12.78C288.754 13.1253 289.043 13.4847 289.323 13.858C289.603 14.2313 289.86 14.6047 290.093 14.978C290.326 15.3513 290.522 15.692 290.681 16H288.287C288.138 15.7573 287.965 15.4913 287.769 15.202C287.582 14.9033 287.382 14.6093 287.167 14.32C286.952 14.0213 286.724 13.7367 286.481 13.466C286.248 13.1953 286.014 12.9667 285.781 12.78V16H283.695V5.472L285.781 5.136V11.296ZM295.096 6.802L297.182 6.466V8.636H299.688V10.372H297.182V12.962C297.182 13.4007 297.256 13.7507 297.406 14.012C297.564 14.2733 297.877 14.404 298.344 14.404C298.568 14.404 298.796 14.3853 299.03 14.348C299.272 14.3013 299.492 14.2407 299.688 14.166L299.982 15.79C299.73 15.8927 299.45 15.9813 299.142 16.056C298.834 16.1307 298.456 16.168 298.008 16.168C297.438 16.168 296.967 16.0933 296.594 15.944C296.22 15.7853 295.922 15.5707 295.698 15.3C295.474 15.02 295.315 14.684 295.222 14.292C295.138 13.9 295.096 13.466 295.096 12.99V6.802ZM308.001 12.304C308.001 12.8827 307.917 13.4147 307.749 13.9C307.581 14.376 307.338 14.7867 307.021 15.132C306.703 15.468 306.321 15.7293 305.873 15.916C305.434 16.1027 304.939 16.196 304.389 16.196C303.847 16.196 303.353 16.1027 302.905 15.916C302.466 15.7293 302.088 15.468 301.771 15.132C301.453 14.7867 301.206 14.376 301.029 13.9C300.851 13.4147 300.763 12.8827 300.763 12.304C300.763 11.7253 300.851 11.198 301.029 10.722C301.215 10.246 301.467 9.84 301.785 9.504C302.111 9.168 302.494 8.90667 302.933 8.72C303.381 8.53333 303.866 8.44 304.389 8.44C304.921 8.44 305.406 8.53333 305.845 8.72C306.293 8.90667 306.675 9.168 306.993 9.504C307.31 9.84 307.557 10.246 307.735 10.722C307.912 11.198 308.001 11.7253 308.001 12.304ZM305.873 12.304C305.873 11.66 305.742 11.156 305.481 10.792C305.229 10.4187 304.865 10.232 304.389 10.232C303.913 10.232 303.544 10.4187 303.283 10.792C303.021 11.156 302.891 11.66 302.891 12.304C302.891 12.948 303.021 13.4613 303.283 13.844C303.544 14.2173 303.913 14.404 304.389 14.404C304.865 14.404 305.229 14.2173 305.481 13.844C305.742 13.4613 305.873 12.948 305.873 12.304ZM319.266 15.748C318.911 15.8507 318.454 15.944 317.894 16.028C317.334 16.1213 316.746 16.168 316.13 16.168C315.505 16.168 314.982 16.084 314.562 15.916C314.151 15.748 313.825 15.5147 313.582 15.216C313.339 14.908 313.167 14.544 313.064 14.124C312.961 13.704 312.91 13.242 312.91 12.738V8.636H314.996V12.486C314.996 13.158 315.085 13.6433 315.262 13.942C315.439 14.2407 315.771 14.39 316.256 14.39C316.405 14.39 316.564 14.3853 316.732 14.376C316.9 14.3573 317.049 14.3387 317.18 14.32V8.636H319.266V15.748ZM323.338 14.502C323.721 14.502 323.991 14.4647 324.15 14.39C324.309 14.3153 324.388 14.1707 324.388 13.956C324.388 13.788 324.285 13.6433 324.08 13.522C323.875 13.3913 323.562 13.2467 323.142 13.088C322.815 12.9667 322.517 12.8407 322.246 12.71C321.985 12.5793 321.761 12.4253 321.574 12.248C321.387 12.0613 321.243 11.842 321.14 11.59C321.037 11.338 320.986 11.0347 320.986 10.68C320.986 9.98933 321.243 9.44333 321.756 9.042C322.269 8.64067 322.974 8.44 323.87 8.44C324.318 8.44 324.747 8.482 325.158 8.566C325.569 8.64067 325.895 8.72467 326.138 8.818L325.774 10.442C325.531 10.358 325.265 10.2833 324.976 10.218C324.696 10.1527 324.379 10.12 324.024 10.12C323.371 10.12 323.044 10.302 323.044 10.666C323.044 10.75 323.058 10.8247 323.086 10.89C323.114 10.9553 323.17 11.0207 323.254 11.086C323.338 11.142 323.45 11.2073 323.59 11.282C323.739 11.3473 323.926 11.422 324.15 11.506C324.607 11.674 324.985 11.842 325.284 12.01C325.583 12.1687 325.816 12.346 325.984 12.542C326.161 12.7287 326.283 12.9387 326.348 13.172C326.423 13.4053 326.46 13.676 326.46 13.984C326.46 14.712 326.185 15.2627 325.634 15.636C325.093 16.0093 324.323 16.196 323.324 16.196C322.671 16.196 322.125 16.14 321.686 16.028C321.257 15.916 320.958 15.8227 320.79 15.748L321.14 14.054C321.495 14.194 321.859 14.306 322.232 14.39C322.605 14.4647 322.974 14.502 323.338 14.502Z" fill="#424551"/>
<path d="M264.44 41V27.32L266.114 27.032V31.82C266.426 31.7 266.756 31.61 267.104 31.55C267.464 31.478 267.818 31.442 268.166 31.442C268.91 31.442 269.528 31.55 270.02 31.766C270.512 31.97 270.902 32.264 271.19 32.648C271.49 33.02 271.7 33.47 271.82 33.998C271.94 34.526 272 35.108 272 35.744V41H270.326V36.104C270.326 35.528 270.284 35.036 270.2 34.628C270.128 34.22 270.002 33.89 269.822 33.638C269.642 33.386 269.402 33.206 269.102 33.098C268.802 32.978 268.43 32.918 267.986 32.918C267.806 32.918 267.62 32.93 267.428 32.954C267.236 32.978 267.05 33.008 266.87 33.044C266.702 33.068 266.546 33.098 266.402 33.134C266.27 33.17 266.174 33.2 266.114 33.224V41H264.44ZM274.201 36.338C274.201 35.51 274.321 34.79 274.561 34.178C274.801 33.554 275.119 33.038 275.515 32.63C275.911 32.222 276.367 31.916 276.883 31.712C277.399 31.508 277.927 31.406 278.467 31.406C279.727 31.406 280.693 31.802 281.365 32.594C282.037 33.374 282.373 34.568 282.373 36.176C282.373 36.248 282.373 36.344 282.373 36.464C282.373 36.572 282.367 36.674 282.355 36.77H275.947C276.019 37.742 276.301 38.48 276.793 38.984C277.285 39.488 278.053 39.74 279.097 39.74C279.685 39.74 280.177 39.692 280.573 39.596C280.981 39.488 281.287 39.386 281.491 39.29L281.725 40.694C281.521 40.802 281.161 40.916 280.645 41.036C280.141 41.156 279.565 41.216 278.917 41.216C278.101 41.216 277.393 41.096 276.793 40.856C276.205 40.604 275.719 40.262 275.335 39.83C274.951 39.398 274.663 38.888 274.471 38.3C274.291 37.7 274.201 37.046 274.201 36.338ZM280.627 35.42C280.639 34.664 280.447 34.046 280.051 33.566C279.667 33.074 279.133 32.828 278.449 32.828C278.065 32.828 277.723 32.906 277.423 33.062C277.135 33.206 276.889 33.398 276.685 33.638C276.481 33.878 276.319 34.154 276.199 34.466C276.091 34.778 276.019 35.096 275.983 35.42H280.627ZM287.586 41.18C286.554 41.156 285.822 40.934 285.39 40.514C284.958 40.094 284.742 39.44 284.742 38.552V27.32L286.416 27.032V38.282C286.416 38.558 286.44 38.786 286.488 38.966C286.536 39.146 286.614 39.29 286.722 39.398C286.83 39.506 286.974 39.59 287.154 39.65C287.334 39.698 287.556 39.74 287.82 39.776L287.586 41.18ZM292.508 41.18C291.476 41.156 290.744 40.934 290.312 40.514C289.88 40.094 289.664 39.44 289.664 38.552V27.32L291.338 27.032V38.282C291.338 38.558 291.362 38.786 291.41 38.966C291.458 39.146 291.536 39.29 291.644 39.398C291.752 39.506 291.896 39.59 292.076 39.65C292.256 39.698 292.478 39.74 292.742 39.776L292.508 41.18ZM302.884 36.32C302.884 37.064 302.776 37.736 302.56 38.336C302.344 38.936 302.038 39.452 301.642 39.884C301.258 40.316 300.796 40.652 300.256 40.892C299.716 41.12 299.128 41.234 298.492 41.234C297.856 41.234 297.268 41.12 296.728 40.892C296.188 40.652 295.72 40.316 295.324 39.884C294.94 39.452 294.64 38.936 294.424 38.336C294.208 37.736 294.1 37.064 294.1 36.32C294.1 35.588 294.208 34.922 294.424 34.322C294.64 33.71 294.94 33.188 295.324 32.756C295.72 32.324 296.188 31.994 296.728 31.766C297.268 31.526 297.856 31.406 298.492 31.406C299.128 31.406 299.716 31.526 300.256 31.766C300.796 31.994 301.258 32.324 301.642 32.756C302.038 33.188 302.344 33.71 302.56 34.322C302.776 34.922 302.884 35.588 302.884 36.32ZM301.138 36.32C301.138 35.264 300.898 34.43 300.418 33.818C299.95 33.194 299.308 32.882 298.492 32.882C297.676 32.882 297.028 33.194 296.548 33.818C296.08 34.43 295.846 35.264 295.846 36.32C295.846 37.376 296.08 38.216 296.548 38.84C297.028 39.452 297.676 39.758 298.492 39.758C299.308 39.758 299.95 39.452 300.418 38.84C300.898 38.216 301.138 37.376 301.138 36.32ZM316.219 40.226C315.835 40.226 315.517 40.172 315.265 40.064C315.013 39.956 314.803 39.812 314.635 39.632C314.371 39.776 314.053 39.902 313.681 40.01C313.309 40.106 312.937 40.154 312.565 40.154C311.989 40.154 311.461 40.064 310.981 39.884C310.513 39.704 310.105 39.44 309.757 39.092C309.409 38.732 309.139 38.294 308.947 37.778C308.755 37.262 308.659 36.662 308.659 35.978C308.659 35.402 308.749 34.862 308.929 34.358C309.109 33.842 309.373 33.398 309.721 33.026C310.081 32.642 310.513 32.342 311.017 32.126C311.533 31.91 312.115 31.802 312.763 31.802C313.375 31.802 313.933 31.85 314.437 31.946C314.953 32.042 315.349 32.138 315.625 32.234V37.742C315.625 38.126 315.691 38.396 315.823 38.552C315.955 38.708 316.129 38.786 316.345 38.786C316.657 38.786 316.927 38.678 317.155 38.462C317.395 38.246 317.587 37.964 317.731 37.616C317.887 37.268 318.001 36.878 318.073 36.446C318.145 36.002 318.181 35.552 318.181 35.096C318.181 34.34 318.049 33.632 317.785 32.972C317.521 32.3 317.143 31.712 316.651 31.208C316.159 30.704 315.559 30.308 314.851 30.02C314.155 29.732 313.369 29.588 312.493 29.588C311.617 29.588 310.813 29.738 310.081 30.038C309.349 30.326 308.719 30.746 308.191 31.298C307.663 31.838 307.249 32.504 306.949 33.296C306.661 34.088 306.517 34.988 306.517 35.996C306.517 37.052 306.673 37.982 306.985 38.786C307.297 39.578 307.729 40.244 308.281 40.784C308.845 41.312 309.505 41.708 310.261 41.972C311.029 42.248 311.869 42.386 312.781 42.386C313.489 42.386 314.071 42.344 314.527 42.26C314.995 42.176 315.295 42.11 315.427 42.062L315.607 43.394C315.403 43.466 315.031 43.544 314.491 43.628C313.963 43.712 313.393 43.754 312.781 43.754C311.713 43.754 310.705 43.598 309.757 43.286C308.809 42.986 307.981 42.518 307.273 41.882C306.565 41.258 306.001 40.46 305.581 39.488C305.173 38.504 304.969 37.34 304.969 35.996C304.969 34.7 305.173 33.566 305.581 32.594C305.989 31.622 306.535 30.818 307.219 30.182C307.915 29.534 308.713 29.048 309.613 28.724C310.525 28.4 311.485 28.238 312.493 28.238C313.477 28.238 314.407 28.4 315.283 28.724C316.159 29.036 316.927 29.498 317.587 30.11C318.247 30.71 318.769 31.442 319.153 32.306C319.537 33.158 319.729 34.124 319.729 35.204C319.729 36.02 319.633 36.74 319.441 37.364C319.261 37.988 319.015 38.516 318.703 38.948C318.391 39.368 318.019 39.686 317.587 39.902C317.155 40.118 316.699 40.226 316.219 40.226ZM312.619 38.768C312.871 38.768 313.123 38.744 313.375 38.696C313.639 38.636 313.873 38.552 314.077 38.444C314.041 38.288 314.017 38.132 314.005 37.976C313.993 37.82 313.987 37.67 313.987 37.526V33.296C313.915 33.272 313.777 33.248 313.573 33.224C313.369 33.2 313.141 33.188 312.889 33.188C312.037 33.188 311.401 33.452 310.981 33.98C310.561 34.508 310.351 35.174 310.351 35.978C310.351 36.83 310.555 37.508 310.963 38.012C311.371 38.516 311.923 38.768 312.619 38.768ZM326.41 41.216C325.654 41.216 324.988 41.096 324.412 40.856C323.848 40.616 323.368 40.28 322.972 39.848C322.588 39.416 322.3 38.906 322.108 38.318C321.916 37.718 321.82 37.058 321.82 36.338C321.82 35.618 321.922 34.958 322.126 34.358C322.342 33.758 322.642 33.242 323.026 32.81C323.41 32.366 323.878 32.024 324.43 31.784C324.994 31.532 325.618 31.406 326.302 31.406C326.722 31.406 327.142 31.442 327.562 31.514C327.982 31.586 328.384 31.7 328.768 31.856L328.39 33.278C328.138 33.158 327.844 33.062 327.508 32.99C327.184 32.918 326.836 32.882 326.464 32.882C325.528 32.882 324.808 33.176 324.304 33.764C323.812 34.352 323.566 35.21 323.566 36.338C323.566 36.842 323.62 37.304 323.728 37.724C323.848 38.144 324.028 38.504 324.268 38.804C324.52 39.104 324.838 39.338 325.222 39.506C325.606 39.662 326.074 39.74 326.626 39.74C327.07 39.74 327.472 39.698 327.832 39.614C328.192 39.53 328.474 39.44 328.678 39.344L328.912 40.748C328.816 40.808 328.678 40.868 328.498 40.928C328.318 40.976 328.114 41.018 327.886 41.054C327.658 41.102 327.412 41.138 327.148 41.162C326.896 41.198 326.65 41.216 326.41 41.216ZM334.166 31.442C334.31 31.442 334.472 31.454 334.652 31.478C334.844 31.49 335.03 31.514 335.21 31.55C335.39 31.574 335.552 31.604 335.696 31.64C335.852 31.664 335.966 31.688 336.038 31.712L335.75 33.17C335.618 33.122 335.396 33.068 335.084 33.008C334.784 32.936 334.394 32.9 333.914 32.9C333.602 32.9 333.29 32.936 332.978 33.008C332.678 33.068 332.48 33.11 332.384 33.134V41H330.71V32.036C331.106 31.892 331.598 31.76 332.186 31.64C332.774 31.508 333.434 31.442 334.166 31.442ZM337.131 36.338C337.131 35.51 337.251 34.79 337.491 34.178C337.731 33.554 338.049 33.038 338.445 32.63C338.841 32.222 339.297 31.916 339.813 31.712C340.329 31.508 340.857 31.406 341.397 31.406C342.657 31.406 343.623 31.802 344.295 32.594C344.967 33.374 345.303 34.568 345.303 36.176C345.303 36.248 345.303 36.344 345.303 36.464C345.303 36.572 345.297 36.674 345.285 36.77H338.877C338.949 37.742 339.231 38.48 339.723 38.984C340.215 39.488 340.983 39.74 342.027 39.74C342.615 39.74 343.107 39.692 343.503 39.596C343.911 39.488 344.217 39.386 344.421 39.29L344.655 40.694C344.451 40.802 344.091 40.916 343.575 41.036C343.071 41.156 342.495 41.216 341.847 41.216C341.031 41.216 340.323 41.096 339.723 40.856C339.135 40.604 338.649 40.262 338.265 39.83C337.881 39.398 337.593 38.888 337.401 38.3C337.221 37.7 337.131 37.046 337.131 36.338ZM343.557 35.42C343.569 34.664 343.377 34.046 342.981 33.566C342.597 33.074 342.063 32.828 341.379 32.828C340.995 32.828 340.653 32.906 340.353 33.062C340.065 33.206 339.819 33.398 339.615 33.638C339.411 33.878 339.249 34.154 339.129 34.466C339.021 34.778 338.949 35.096 338.913 35.42H343.557ZM350.876 39.794C351.272 39.794 351.62 39.788 351.92 39.776C352.232 39.752 352.49 39.716 352.694 39.668V36.878C352.574 36.818 352.376 36.77 352.1 36.734C351.836 36.686 351.512 36.662 351.128 36.662C350.876 36.662 350.606 36.68 350.318 36.716C350.042 36.752 349.784 36.83 349.544 36.95C349.316 37.058 349.124 37.214 348.968 37.418C348.812 37.61 348.734 37.868 348.734 38.192C348.734 38.792 348.926 39.212 349.31 39.452C349.694 39.68 350.216 39.794 350.876 39.794ZM350.732 31.406C351.404 31.406 351.968 31.496 352.424 31.676C352.892 31.844 353.264 32.09 353.54 32.414C353.828 32.726 354.032 33.104 354.152 33.548C354.272 33.98 354.332 34.46 354.332 34.988V40.838C354.188 40.862 353.984 40.898 353.72 40.946C353.468 40.982 353.18 41.018 352.856 41.054C352.532 41.09 352.178 41.12 351.794 41.144C351.422 41.18 351.05 41.198 350.678 41.198C350.15 41.198 349.664 41.144 349.22 41.036C348.776 40.928 348.392 40.76 348.068 40.532C347.744 40.292 347.492 39.98 347.312 39.596C347.132 39.212 347.042 38.75 347.042 38.21C347.042 37.694 347.144 37.25 347.348 36.878C347.564 36.506 347.852 36.206 348.212 35.978C348.572 35.75 348.992 35.582 349.472 35.474C349.952 35.366 350.456 35.312 350.984 35.312C351.152 35.312 351.326 35.324 351.506 35.348C351.686 35.36 351.854 35.384 352.01 35.42C352.178 35.444 352.322 35.468 352.442 35.492C352.562 35.516 352.646 35.534 352.694 35.546V35.078C352.694 34.802 352.664 34.532 352.604 34.268C352.544 33.992 352.436 33.752 352.28 33.548C352.124 33.332 351.908 33.164 351.632 33.044C351.368 32.912 351.02 32.846 350.588 32.846C350.036 32.846 349.55 32.888 349.13 32.972C348.722 33.044 348.416 33.122 348.212 33.206L348.014 31.82C348.23 31.724 348.59 31.634 349.094 31.55C349.598 31.454 350.144 31.406 350.732 31.406ZM358.678 31.64H362.224V33.044H358.678V37.364C358.678 37.832 358.714 38.222 358.786 38.534C358.858 38.834 358.966 39.074 359.11 39.254C359.254 39.422 359.434 39.542 359.65 39.614C359.866 39.686 360.118 39.722 360.406 39.722C360.91 39.722 361.312 39.668 361.612 39.56C361.924 39.44 362.14 39.356 362.26 39.308L362.584 40.694C362.416 40.778 362.122 40.88 361.702 41C361.282 41.132 360.802 41.198 360.262 41.198C359.626 41.198 359.098 41.12 358.678 40.964C358.27 40.796 357.94 40.55 357.688 40.226C357.436 39.902 357.256 39.506 357.148 39.038C357.052 38.558 357.004 38.006 357.004 37.382V29.03L358.678 28.742V31.64ZM363.656 36.338C363.656 35.51 363.776 34.79 364.016 34.178C364.256 33.554 364.574 33.038 364.97 32.63C365.366 32.222 365.822 31.916 366.338 31.712C366.854 31.508 367.382 31.406 367.922 31.406C369.182 31.406 370.148 31.802 370.82 32.594C371.492 33.374 371.828 34.568 371.828 36.176C371.828 36.248 371.828 36.344 371.828 36.464C371.828 36.572 371.822 36.674 371.81 36.77H365.402C365.474 37.742 365.756 38.48 366.248 38.984C366.74 39.488 367.508 39.74 368.552 39.74C369.14 39.74 369.632 39.692 370.028 39.596C370.436 39.488 370.742 39.386 370.946 39.29L371.18 40.694C370.976 40.802 370.616 40.916 370.1 41.036C369.596 41.156 369.02 41.216 368.372 41.216C367.556 41.216 366.848 41.096 366.248 40.856C365.66 40.604 365.174 40.262 364.79 39.83C364.406 39.398 364.118 38.888 363.926 38.3C363.746 37.7 363.656 37.046 363.656 36.338ZM370.082 35.42C370.094 34.664 369.902 34.046 369.506 33.566C369.122 33.074 368.588 32.828 367.904 32.828C367.52 32.828 367.178 32.906 366.878 33.062C366.59 33.206 366.344 33.398 366.14 33.638C365.936 33.878 365.774 34.154 365.654 34.466C365.546 34.778 365.474 35.096 365.438 35.42H370.082ZM379.831 41C379.699 40.736 379.537 40.442 379.345 40.118C379.153 39.794 378.943 39.464 378.715 39.128C378.487 38.78 378.253 38.438 378.013 38.102C377.773 37.766 377.539 37.448 377.311 37.148C377.083 37.448 376.849 37.772 376.609 38.12C376.369 38.456 376.135 38.798 375.907 39.146C375.691 39.482 375.487 39.812 375.295 40.136C375.103 40.46 374.941 40.748 374.809 41H373.081C373.501 40.184 373.999 39.356 374.575 38.516C375.163 37.664 375.745 36.854 376.321 36.086L373.225 31.64H375.115L377.347 34.916L379.597 31.64H381.379L378.355 35.978C378.931 36.758 379.519 37.586 380.119 38.462C380.731 39.326 381.247 40.172 381.667 41H379.831ZM385.406 40.028C385.406 40.352 385.298 40.634 385.082 40.874C384.866 41.114 384.572 41.234 384.2 41.234C383.828 41.234 383.534 41.114 383.318 40.874C383.102 40.634 382.994 40.352 382.994 40.028C382.994 39.704 383.102 39.422 383.318 39.182C383.534 38.942 383.828 38.822 384.2 38.822C384.572 38.822 384.866 38.942 385.082 39.182C385.298 39.422 385.406 39.704 385.406 40.028ZM391.924 41.216C391.168 41.216 390.502 41.096 389.926 40.856C389.362 40.616 388.882 40.28 388.486 39.848C388.102 39.416 387.814 38.906 387.622 38.318C387.43 37.718 387.334 37.058 387.334 36.338C387.334 35.618 387.436 34.958 387.64 34.358C387.856 33.758 388.156 33.242 388.54 32.81C388.924 32.366 389.392 32.024 389.944 31.784C390.508 31.532 391.132 31.406 391.816 31.406C392.236 31.406 392.656 31.442 393.076 31.514C393.496 31.586 393.898 31.7 394.282 31.856L393.904 33.278C393.652 33.158 393.358 33.062 393.022 32.99C392.698 32.918 392.35 32.882 391.978 32.882C391.042 32.882 390.322 33.176 389.818 33.764C389.326 34.352 389.08 35.21 389.08 36.338C389.08 36.842 389.134 37.304 389.242 37.724C389.362 38.144 389.542 38.504 389.782 38.804C390.034 39.104 390.352 39.338 390.736 39.506C391.12 39.662 391.588 39.74 392.14 39.74C392.584 39.74 392.986 39.698 393.346 39.614C393.706 39.53 393.988 39.44 394.192 39.344L394.426 40.748C394.33 40.808 394.192 40.868 394.012 40.928C393.832 40.976 393.628 41.018 393.4 41.054C393.172 41.102 392.926 41.138 392.662 41.162C392.41 41.198 392.164 41.216 391.924 41.216ZM404.257 36.32C404.257 37.064 404.149 37.736 403.933 38.336C403.717 38.936 403.411 39.452 403.015 39.884C402.631 40.316 402.169 40.652 401.629 40.892C401.089 41.12 400.501 41.234 399.865 41.234C399.229 41.234 398.641 41.12 398.101 40.892C397.561 40.652 397.093 40.316 396.697 39.884C396.313 39.452 396.013 38.936 395.797 38.336C395.581 37.736 395.473 37.064 395.473 36.32C395.473 35.588 395.581 34.922 395.797 34.322C396.013 33.71 396.313 33.188 396.697 32.756C397.093 32.324 397.561 31.994 398.101 31.766C398.641 31.526 399.229 31.406 399.865 31.406C400.501 31.406 401.089 31.526 401.629 31.766C402.169 31.994 402.631 32.324 403.015 32.756C403.411 33.188 403.717 33.71 403.933 34.322C404.149 34.922 404.257 35.588 404.257 36.32ZM402.511 36.32C402.511 35.264 402.271 34.43 401.791 33.818C401.323 33.194 400.681 32.882 399.865 32.882C399.049 32.882 398.401 33.194 397.921 33.818C397.453 34.43 397.219 35.264 397.219 36.32C397.219 37.376 397.453 38.216 397.921 38.84C398.401 39.452 399.049 39.758 399.865 39.758C400.681 39.758 401.323 39.452 401.791 38.84C402.271 38.216 402.511 37.376 402.511 36.32ZM406.612 31.91C406.996 31.814 407.5 31.712 408.124 31.604C408.76 31.496 409.492 31.442 410.32 31.442C410.92 31.442 411.424 31.526 411.832 31.694C412.24 31.85 412.582 32.084 412.858 32.396C412.942 32.336 413.074 32.252 413.254 32.144C413.434 32.036 413.656 31.934 413.92 31.838C414.184 31.73 414.478 31.64 414.802 31.568C415.126 31.484 415.474 31.442 415.846 31.442C416.566 31.442 417.154 31.55 417.61 31.766C418.066 31.97 418.42 32.264 418.672 32.648C418.936 33.032 419.11 33.488 419.194 34.016C419.29 34.544 419.338 35.12 419.338 35.744V41H417.664V36.104C417.664 35.552 417.634 35.078 417.574 34.682C417.526 34.286 417.424 33.956 417.268 33.692C417.124 33.428 416.92 33.236 416.656 33.116C416.404 32.984 416.074 32.918 415.666 32.918C415.102 32.918 414.634 32.996 414.262 33.152C413.902 33.296 413.656 33.428 413.524 33.548C413.62 33.86 413.692 34.202 413.74 34.574C413.788 34.946 413.812 35.336 413.812 35.744V41H412.138V36.104C412.138 35.552 412.108 35.078 412.048 34.682C411.988 34.286 411.88 33.956 411.724 33.692C411.58 33.428 411.376 33.236 411.112 33.116C410.86 32.984 410.536 32.918 410.14 32.918C409.972 32.918 409.792 32.924 409.6 32.936C409.408 32.948 409.222 32.966 409.042 32.99C408.874 33.002 408.718 33.02 408.574 33.044C408.43 33.068 408.334 33.086 408.286 33.098V41H406.612V31.91Z" fill="#1E212C"/>
<a href="mailto:hello@createx.com">
<rect fill="black" fill-opacity="0" y="3.159" width="157.67" height="20.682"/>
</a>
</g>
</g>
</g>
<defs>
<clipPath id="clip0_127094_2101">
<rect width="421" height="48" fill="white"/>
</clipPath>
<clipPath id="clip1_127094_2101">
<rect width="175" height="48" fill="white"/>
</clipPath>
<clipPath id="clip2_127094_2101">
<rect width="123" height="48" fill="white" transform="translate(52)"/>
</clipPath>
<clipPath id="clip3_127094_2101">
<rect width="210" height="48" fill="white" transform="translate(211)"/>
</clipPath>
<clipPath id="clip4_127094_2101">
<rect width="158" height="48" fill="white" transform="translate(263)"/>
</clipPath>
</defs>
</svg>
